<svg id="Layer_1" data-name="Layer 1" xmlns="http://www.w3.org/2000/svg" xmlns:xlink="http://www.w3.org/1999/xlink" viewBox="0 0 390.46 317.36"><defs><style>.cls-1{fill:#fff;}.cls-2{mask:url(#mask);}.cls-3{mask:url(#mask-2-2);}</style><mask id="mask" x="0" y="0" width="390.46" height="317.36" maskUnits="userSpaceOnUse"><g transform="translate(0 -0.73)"><g id="mask-2"><polygon id="path-1" class="cls-1" points="0 34.78 0 318.09 390.46 318.09 390.46 0.73 0 0.73 0 34.78 0 209.14 140.58 209.14 140.58 34.78 0 34.78"/></g></g></mask><mask id="mask-2-2" x="254.71" y="0" width="135.74" height="85.51" maskUnits="userSpaceOnUse"><g transform="translate(0 -0.73)"><g id="mask-4"><polygon id="path-3" class="cls-1" points="390.44 0.73 254.71 0.73 254.71 86.24 390.44 86.24 390.44 0.73"/></g></g></mask></defs><title>tagTextLogo</title><path id="Fill-1" class="cls-1" d="M351.21,276.48c0,13.78-6.09,20-20.31,20h-2.78c-14.24,0-20.54-5.94-20.54-19.68,0-8.18,0-1.59,0-18.25,0-14.82,1.93-17.19,19.65-17.19h24Zm-19.3-87.07H310.35c-17.74,0-19.61-5.14-19.61-19.95,0-16.73,0-36.73,0-44.86,0-13.78,6.21-19.71,20.51-19.71h20c14.22,0,20.3,6.22,20.3,20v44.58c0,14.81-1.88,19.95-19.65,19.95Zm58.52-71s2.35-36.19-33.67-36.19l-76.08,0c-21.09,0-30.23,9.14-30.23,32v65.14c0,28,21.37,29.88,21.37,29.88l69.87-.06s9.29-.13,9.29,11.09H306.41s-23.72-.43-23.72,27.6v38.12c0,22.89,9.22,32,30.31,32h43.75c36,0,33.67-36.21,33.67-36.21V118.46Z" transform="translate(0 -0.73)"/><g id="Group-5"><g class="cls-2"><path id="Fill-3" class="cls-1" d="M88.18,58.31V194.07s-.45,12.84,7.19,12.84l0,2.24H43.43l-.07-2.24c7.67,0,7.31-12.84,7.31-12.84V58.31H18.38C2,58.31,0,34.78,0,34.78H122.27c16.37,0,18.31,23.52,18.31,23.52H88.18" transform="translate(0 -0.73)"/></g></g><path id="Fill-6" class="cls-1" d="M122.25,84.24h91.92c21.25,0,21.84,10.59,21.53,34.22v76s-.29,12.92,7.33,12.92l-.07,2.23H206.21l0-15.05c0,14.77-19.3,15.05-19.3,15.05H142.08a43.17,43.17,0,0,1,0-86.34l40.56,0v0s0,0,.07,0h.08a9,9,0,0,1,8.94,9,8.87,8.87,0,0,1-8.94,8.95v.06H162.72c-14,.28-25.27,11.2-25.27,24.66,0,13.62,11.55,24.66,25.73,24.66h10.27c14.26,0,25.81-11,25.81-24.66V115c0-.3.81-10.65-10.41-10.65H139S122.25,103,122.25,84.24" transform="translate(0 -0.73)"/><g id="Group-10"><g class="cls-3"><path id="Fill-8" class="cls-1" d="M378.79,66.52c-5.95-2.19-13.74-3.73-24-3.73H294.83c-15.71,0-28.46-11.55-28.46-25.76s12.75-25.75,28.46-25.75H350.4c15.67,0,28.39,11.57,28.39,25.75ZM350.41.73H294.83C272.69.73,254.71,17,254.71,37s18,36.32,40.12,36.32h59.91c28.37,0,31.3,12.88,31.3,12.88h4.4V37c0-20-17.9-36.28-40-36.3Z" transform="translate(0 -0.73)"/></g></g></svg>